#!OML:ASF X:\für Bonn\!DataBase\2005_08_11_Bastian_Final\c3d\Bastian.ASF
:FULLY-SPECIFIED
:DEGREES
51
root 2.15181 20.1484 29.8962 1072.43 -6.03192 -1.13955
lowerback 12.821 1.37439 1.04562
upperback 7.65435 1.90434 0.111814
thorax 0.870085 0.978593 -0.694475
lowerneck -7.28924 -4.40988 -10.3192
upperneck 3.25887 -5.42091 9.42518
head 2.69669 -2.53799 4.27395
rclavicle 2.17172e-014 -1.23743e-014
rhumerus -43.454 19.9283 -95.0203
rradius 66.9136
rwrist 7.10929
rhand -15.5398 26.6467
rfingers 7.12502
rthumb 10.6441 -3.06373
lclavicle 2.17172e-014 -1.23743e-014
lhumerus -33.2533 -8.8002 90.248
lradius 73.2363
lwrist -165.222
lhand -28.3648 13.4831
lfingers 7.12502
lthumb -1.73822 43.4558
rfemur -18.1996 0.0703486 23.0876
rtibia 41.0376
rfoot 11.6753 0.256624
rtoes -26.7601
lfemur -18.4218 1.66329 -16.6357
ltibia 34.9096
lfoot 20.7531 -8.1301
ltoes -31.4068
52
root 2.13639 19.9955 30.1279 1072.3 -5.95381 -0.808839
lowerback 12.9936 1.44809 0.827376
upperback 7.72492 1.9792 0.03961
thorax 0.848539 1.01077 -0.659321
lowerneck -7.01936 -4.45178 -10.3574
upperneck 3.11765 -5.49073 9.41832
head 2.61837 -2.58 4.27949
rclavicle -4.8081e-015 2.13694e-015
rhumerus -43.2744 19.5367 -94.894
rradius 66.0857
rwrist 7.10736
rhand -15.44 25.8387
rfingers 7.12502
rthumb 10.7404 -3.86669
lclavicle -4.8081e-015 2.13694e-015
lhumerus -33.2121 -8.71444 90.2778
lradius 72.7672
lwrist -165.403
lhand -28.2472 13.5215
lfingers 7.12502
lthumb -1.62464 43.495
rfemur -18.6499 -0.139795 22.6451
rtibia 40.612
rfoot 12.109 0.79451
rtoes -27.2705
lfemur -18.2181 1.41182 -16.9769
ltibia 33.2974
lfoot 21.0856 -7.64596
ltoes -32.0949
53
root 2.12142 19.8331 30.366 1072.14 -5.84743 -0.589244
lowerback 13.1381 1.49904 0.716287
upperback 7.82799 2.0349 0.013282
thorax 0.87817 1.0362 -0.633211
lowerneck -6.8117 -4.51993 -10.3822
upperneck 2.9714 -5.58837 9.3614
head 2.54957 -2.63554 4.26492
rclavicle -3.46631e-015 8.74653e-015
rhumerus -43.0885 19.1126 -94.7302
rradius 65.1092
rwrist 7.19647
rhand -15.4822 25.0104
rfingers 7.12502
rthumb 10.6997 -4.6971
lclavicle -3.46631e-015 8.74653e-015
lhumerus -33.1939 -8.60657 90.35
lradius 72.3105
lwrist -165.637
lhand -28.1448 13.7174
lfingers 7.12502
lthumb -1.52577 43.6917
rfemur -19.0223 -0.445921 22.3295
rtibia 40.1968
rfoot 12.75 1.25781
rtoes -27.8715
lfemur -17.9822 1.19776 -17.2061
ltibia 31.8438
lfoot 21.4805 -7.20988
ltoes -32.2172
54
root 2.10608 19.6581 30.6041 1071.97 -5.6934 -0.501253
lowerback 13.3435 1.51722 0.755181
upperback 7.90534 2.064 -0.00863367
thorax 0.85325 1.05292 -0.685894
lowerneck -6.56254 -4.57198 -10.3647
upperneck 2.76167 -5.67137 9.3482
head 2.45393 -2.68294 4.25936
rclavicle -6.82701e-015 -1.21756e-015
rhumerus -42.9904 18.5766 -94.6064
rradius 64.0446
rwrist 7.2557
rhand -15.5756 24.3496
rfingers 7.12502
rthumb 10.6095 -5.36253
lclavicle -6.82701e-015 -1.21756e-015
lhumerus -33.2672 -8.5616 90.3571
lradius 71.9378
lwrist -165.859
lhand -28.0375 13.8995
lfingers 7.12502
lthumb -1.42214 43.8745
rfemur -19.3408 -0.796196 22.1602
rtibia 39.7993
rfoot 13.4972 1.52695
rtoes -28.0594
lfemur -17.8041 0.989848 -17.2936
ltibia 30.6405
lfoot 21.9021 -6.67204
ltoes -31.4617
55
root 2.09005 19.467 30.8393 1071.76 -5.52648 -0.502952
lowerback 13.6263 1.50835 0.83472
upperback 7.9786 2.06297 0.0272227
thorax 0.781815 1.0543 -0.70017
lowerneck -6.30889 -4.62396 -10.3623
upperneck 2.49454 -5.7481 9.29151
head 2.33893 -2.7286 4.24412
rclavicle -2.72708e-015 4.07509e-015
rhumerus -42.7109 17.8856 -94.3669
rradius 62.8562
rwrist 7.3942
rhand -15.5564 23.8561
rfingers 7.12502
rthumb 10.628 -5.8551
lclavicle -2.72708e-015 4.07509e-015
lhumerus -33.3473 -8.44726 90.3921
lradius 71.5468
lwrist -166.082
lhand -27.8959 14.1307
lfingers 7.12502
lthumb -1.28539 44.1066
rfemur -19.5653 -1.12384 22.093
rtibia 39.4271
rfoot 14.2052 1.5734
rtoes -27.4108
lfemur -17.6958 0.949696 -17.3072
ltibia 29.7623
lfoot 22.096 -6.23933
ltoes -30.0918
56
root 2.07353 19.2586 31.0709 1071.52 -5.31421 -0.530058
lowerback 13.9491 1.48554 0.927638
upperback 8.04449 2.04618 0.0701204
thorax 0.681699 1.04792 -0.713903
lowerneck -6.05729 -4.6736 -10.298
upperneck 2.18492 -5.82219 9.1853
head 2.20802 -2.77333 4.20457
rclavicle -1.58158e-014 4.88575e-015
rhumerus -42.4297 17.1623 -94.1084
rradius 61.7044
rwrist 7.51614
rhand -15.5823 23.502
rfingers 7.12502
rthumb 10.6031 -6.2105
lclavicle -1.58158e-014 4.88575e-015
lhumerus -33.4014 -8.32754 90.4306
lradius 71.2016
lwrist -166.278
lhand -27.8008 14.254
lfingers 7.12502
lthumb -1.19357 44.2304
rfemur -19.7133 -1.49261 22.0585
rtibia 39.0857
rfoot 14.8133 1.42685
rtoes -25.7757
lfemur -17.7618 1.01199 -17.3186
ltibia 29.2967
lfoot 22.1343 -6.09734
ltoes -29.8026
